<svg xmlns="http://www.w3.org/2000/svg" xmlns:xlink="http://www.w3.org/1999/xlink" viewBox="0 0 430 430" width="430" height="430" preserveAspectRatio="xMidYMid meet" style="width: 100%; height: 100%; transform: translate3d(0px, 0px, 0px); content-visibility: visible;"><defs><clipPath id="__lottie_element_26"><rect width="430" height="430" x="0" y="0"/></clipPath><clipPath id="__lottie_element_28"><path d="M0,0 L430,0 L430,430 L0,430z"/></clipPath><filter id="__lottie_element_34" x="-100%" y="-100%" width="300%" height="300%"><feGaussianBlur result="filter_result_0" stdDeviation="52.5 52.5" edgeMode="wrap"/></filter><g id="__lottie_element_35"><g clip-path="url(#__lottie_element_36)" transform="matrix(1,0,0,1,0,0)" opacity="1" style="display: block;"><g transform="matrix(1,0,0,1,287.5,215)" opacity="1" style="display: block;"><g opacity="1" transform="matrix(1,0,0,1,0,0)"><path stroke-linecap="round" stroke-linejoin="round" fill-opacity="0" class="secondary" stroke="rgb(8,168,138)" stroke-opacity="1" stroke-width="12" d=" M-12.5,155 C-12.5,155 -27.5,85 -27.5,85 C-27.5,85 -72.5,85 -72.5,85"/></g></g><g transform="matrix(1,0,0,1,287.5,215)" opacity="1" style="display: block;"><g opacity="1" transform="matrix(1,0,0,1,0,0)"><path stroke-linecap="round" stroke-linejoin="round" fill-opacity="0" class="secondary" stroke="rgb(8,168,138)" stroke-opacity="1" stroke-width="12" d=" M52.5,115 C52.5,115 37.5,45 37.5,45 C37.5,45 -72.5,45 -72.5,45"/></g></g><g transform="matrix(1,0,0,1,287.5,215)" opacity="1" style="display: block;"><g opacity="1" transform="matrix(1,0,0,1,0,0)"><path stroke-linecap="round" stroke-linejoin="round" fill-opacity="0" class="secondary" stroke="rgb(8,168,138)" stroke-opacity="1" stroke-width="12" d=" M72.5,0 C72.5,0 -71.5,0 -71.5,0"/></g></g><g transform="matrix(1,0,0,1,287.5,215)" opacity="1" style="display: block;"><g opacity="1" transform="matrix(1,0,0,1,0,0)"><path stroke-linecap="round" stroke-linejoin="round" fill-opacity="0" class="secondary" stroke="rgb(8,168,138)" stroke-opacity="1" stroke-width="12" d=" M52.5,-115 C52.5,-115 37.5,-45 37.5,-45 C37.5,-45 -72.5,-45 -72.5,-45"/></g></g><g transform="matrix(1,0,0,1,287.5,215)" opacity="1" style="display: block;"><g opacity="1" transform="matrix(1,0,0,1,0,0)"><path stroke-linecap="round" stroke-linejoin="round" fill-opacity="0" class="secondary" stroke="rgb(8,168,138)" stroke-opacity="1" stroke-width="12" d=" M-12.5,-155 C-12.5,-155 -27.5,-85 -27.5,-85 C-27.5,-85 -72.5,-85 -72.5,-85"/></g></g><g transform="matrix(1,0,0,-1,275,385)" opacity="1" style="display: block;"><path fill="rgb(255,0,0)" fill-opacity="1" d=" M-15,0 C-15,-8.28 -8.28,-15 0,-15 C8.28,-15 15,-8.28 15,0 C15,8.28 8.28,15 0,15 C-8.28,15 -15,8.28 -15,0z"/><g opacity="1" transform="matrix(0,-1,1,0,0,0)"><path stroke-linecap="butt" stroke-linejoin="miter" fill-opacity="0" stroke-miterlimit="4" class="secondary" stroke="rgb(8,168,138)" stroke-opacity="1" stroke-width="7" d=" M0,-15 C8.278499603271484,-15 15,-8.278499603271484 15,0 C15,8.278499603271484 8.278499603271484,15 0,15 C-8.278499603271484,15 -15,8.278499603271484 -15,0 C-15,-8.278499603271484 -8.278499603271484,-15 0,-15z"/></g></g><g transform="matrix(1,0,0,-1,340,345)" opacity="1" style="display: block;"><path fill="rgb(255,0,0)" fill-opacity="1" d=" M-15,0 C-15,-8.28 -8.28,-15 0,-15 C8.28,-15 15,-8.28 15,0 C15,8.28 8.28,15 0,15 C-8.28,15 -15,8.28 -15,0z"/><g opacity="1" transform="matrix(0,-1,1,0,0,0)"><path stroke-linecap="butt" stroke-linejoin="miter" fill-opacity="0" stroke-miterlimit="4" class="secondary" stroke="rgb(8,168,138)" stroke-opacity="1" stroke-width="7" d=" M0,-15 C8.278499603271484,-15 15,-8.278499603271484 15,0 C15,8.278499603271484 8.278499603271484,15 0,15 C-8.278499603271484,15 -15,8.278499603271484 -15,0 C-15,-8.278499603271484 -8.278499603271484,-15 0,-15z"/></g></g><g transform="matrix(1,0,0,-1,375,215)" opacity="1" style="display: block;"><path fill="rgb(255,0,0)" fill-opacity="1" d=" M15,0 C15,8.28 8.28,15 0,15 C-8.28,15 -15,8.28 -15,0 C-15,-8.28 -8.28,-15 0,-15 C8.28,-15 15,-8.28 15,0z"/><g opacity="1" transform="matrix(0,1,-1,0,0,0)"><path stroke-linecap="butt" stroke-linejoin="miter" fill-opacity="0" stroke-miterlimit="4" class="secondary" stroke="rgb(8,168,138)" stroke-opacity="1" stroke-width="7" d=" M0,-15 C8.278499603271484,-15 15,-8.278499603271484 15,0 C15,8.278499603271484 8.278499603271484,15 0,15 C-8.278499603271484,15 -15,8.278499603271484 -15,0 C-15,-8.278499603271484 -8.278499603271484,-15 0,-15z"/></g></g><g transform="matrix(1,0,0,1,340,85)" opacity="1" style="display: block;"><path fill="rgb(255,0,0)" fill-opacity="1" d=" M-15,0 C-15,-8.28 -8.28,-15 0,-15 C8.28,-15 15,-8.28 15,0 C15,8.28 8.28,15 0,15 C-8.28,15 -15,8.28 -15,0z"/><g opacity="1" transform="matrix(0,-1,1,0,0,0)"><path stroke-linecap="butt" stroke-linejoin="miter" fill-opacity="0" stroke-miterlimit="4" class="secondary" stroke="rgb(8,168,138)" stroke-opacity="1" stroke-width="7" d=" M0,-15 C8.278499603271484,-15 15,-8.278499603271484 15,0 C15,8.278499603271484 8.278499603271484,15 0,15 C-8.278499603271484,15 -15,8.278499603271484 -15,0 C-15,-8.278499603271484 -8.278499603271484,-15 0,-15z"/></g></g><g transform="matrix(1,0,0,-1,275,45)" opacity="1" style="display: block;"><path fill="rgb(255,0,0)" fill-opacity="1" d=" M-15,0 C-15,-8.28 -8.28,-15 0,-15 C8.28,-15 15,-8.28 15,0 C15,8.28 8.28,15 0,15 C-8.28,15 -15,8.28 -15,0z"/><g opacity="1" transform="matrix(0,-1,1,0,0,0)"><path stroke-linecap="butt" stroke-linejoin="miter" fill-opacity="0" stroke-miterlimit="4" class="secondary" stroke="rgb(8,168,138)" stroke-opacity="1" stroke-width="7" d=" M0,-15 C8.278499603271484,-15 15,-8.278499603271484 15,0 C15,8.278499603271484 8.278499603271484,15 0,15 C-8.278499603271484,15 -15,8.278499603271484 -15,0 C-15,-8.278499603271484 -8.278499603271484,-15 0,-15z"/></g></g><g transform="matrix(1,0,0,1,131.76699829101562,215)" opacity="1" style="display: block;"><g opacity="1" transform="matrix(1,0,0,1,0,0)"><path stroke-linecap="round" stroke-linejoin="round" fill-opacity="0" class="primary" stroke="rgb(18,19,49)" stroke-opacity="1" stroke-width="12" d=" M-67.66500091552734,34.06399917602539 C-59.40599822998047,43.064998626708984 -47.53799819946289,48.702999114990234 -34.35900115966797,48.702999114990234 M23.864999771118164,-61.590999603271484 C23.864999771118164,-86.552001953125 3.6410000324249268,-106.78800201416016 -21.31999969482422,-106.78800201416016 C-26.969999313354492,-106.78800201416016 -32.38199996948242,-105.74500274658203 -37.36600112915039,-103.8550033569336 M82.76599884033203,135.73300170898438 C82.76599884033203,135.73300170898438 82.76599884033203,-144.35800170898438 82.76599884033203,-144.35800170898438 C82.76599884033203,-166.80599975585938 65.16300201416016,-185 42.71500015258789,-185 C21.72800064086914,-185 5.4670000076293945,-169.10400390625 3.308000087738037,-148.68600463867188 C3.2219998836517334,-148.68600463867188 3.1470000743865967,-148.69700622558594 3.072000026702881,-148.69700622558594 C-19.375999450683594,-148.69700622558594 -37.56999969482422,-130.5030059814453 -37.56999969482422,-108.05500030517578 C-37.56999969482422,-106.62699890136719 -37.49599838256836,-105.23100280761719 -37.35599899291992,-103.84500122070312 C-54.38999938964844,-97.36799621582031 -66.50499725341797,-80.9020004272461 -66.50499725341797,-61.590999603271484 C-66.50499725341797,-51.64500045776367 -63.28300094604492,-42.4739990234375 -57.847999572753906,-35.00899887084961 C-70.79000091552734,-27.06100082397461 -79.4260025024414,-12.78600025177002 -79.4260025024414,3.5179998874664307 C-79.4260025024414,15.267999649047852 -74.93699645996094,25.96500015258789 -67.58999633789062,33.999000549316406 C-76.77300262451172,40.540000915527344 -82.76599884033203,51.25899887084961 -82.76599884033203,63.395999908447266 C-82.76599884033203,76.84300231933594 -75.39900207519531,88.5719985961914 -64.49700164794922,94.76899719238281 C-65.80699920654297,99.09700012207031 -66.51599884033203,103.68399810791016 -66.51599884033203,108.44200134277344 C-66.51599884033203,134.4770050048828 -45.4109992980957,155.58200073242188 -19.375999450683594,155.58200073242188 C-17.95800018310547,155.58200073242188 -16.562000274658203,155.50599670410156 -15.175999641418457,155.38800048828125 C-6.980999946594238,172.88400268554688 10.772000312805176,185 31.36199951171875,185 C59.737998962402344,185 82.73400115966797,162.00399780273438 82.73400115966797,133.6280059814453 C82.73400115966797,105.25199890136719 59.72800064086914,82.25599670410156 31.36199951171875,82.25599670410156"/></g><g opacity="1" transform="matrix(1,0,0,1,0,0)"><path stroke-linecap="round" stroke-linejoin="round" fill-opacity="0" class="primary" stroke="rgb(18,19,49)" stroke-opacity="1" stroke-width="12" d=" M82.5199966430664,-28.006000518798828 C58.92599868774414,6.892000198364258 3.2139999866485596,-0.9929999709129333 -9.21500015258789,-41.71099853515625 M28.58099937438965,54.28799819946289 C3.619999885559082,54.28799819946289 -16.614999771118164,74.51200103759766 -16.614999771118164,99.4729995727539"/></g><g opacity="1" transform="matrix(1,0,0,1,0,0)"><path stroke-linecap="round" stroke-linejoin="round" fill-opacity="0" class="primary" stroke="rgb(18,19,49)" stroke-opacity="1" stroke-width="12" d=" M82.76599884033203,-108.05500030517578 C82.76599884033203,-114.86399841308594 79.61900329589844,-120.9540023803711 74.71099853515625,-124.9280014038086 C70.98400115966797,-127.94599914550781 66.23699951171875,-129.76199340820312 61.060001373291016,-129.76199340820312"/></g></g></g></g><clipPath id="__lottie_element_36"><path d="M0,0 L430,0 L430,430 L0,430z"/></clipPath><mask id="__lottie_element_35_1" mask-type="alpha"><use xmlns:ns1="http://www.w3.org/1999/xlink" ns1:href="#__lottie_element_35"/></mask></defs><g clip-path="url(#__lottie_element_26)"><g clip-path="url(#__lottie_element_28)" transform="matrix(1,0,0,1,0,0)" opacity="1" style="display: block;"><g mask="url(#__lottie_element_35_1)" style="display: block;"><g filter="url(#__lottie_element_34)" transform="matrix(-0.1674155443906784,-2.3941538333892822,2.3941538333892822,-0.1674155443906784,271.9410095214844,220.4600067138672)" opacity="1"><g class="design" opacity="1" transform="matrix(1,0,0,1,0,0)"><path class="primary" fill="rgb(75,225,236)" fill-opacity="1" d=" M0,-250 C137.97500610351562,-250 250,-137.97500610351562 250,0 C250,137.97500610351562 137.97500610351562,250 0,250 C-137.97500610351562,250 -250,137.97500610351562 -250,0 C-250,-137.97500610351562 -137.97500610351562,-250 0,-250z"/></g><g class="design" opacity="1" transform="matrix(1,0,0,1,113.24199676513672,-118.88400268554688)"><path class="secondary" fill="rgb(0,0,0)" fill-opacity="1" d=" M0,-176.5 C97.47799682617188,-176.5 176.5,-97.47799682617188 176.5,0 C176.5,97.47799682617188 97.47799682617188,176.5 0,176.5 C-43.948001861572266,176.5 -74.39600372314453,142.4429931640625 -105.29000091552734,115.86900329589844 C-142.92100524902344,83.5 -176.5,53.53099822998047 -176.5,0 C-176.5,-97.47799682617188 -97.47799682617188,-176.5 0,-176.5z"/></g></g></g></g></g></svg>