<svg xmlns="http://www.w3.org/2000/svg" xmlns:xlink="http://www.w3.org/1999/xlink" viewBox="0 0 430 430" width="430" height="430" preserveAspectRatio="xMidYMid meet" style="width: 100%; height: 100%; transform: translate3d(0px, 0px, 0px); content-visibility: visible;"><defs><clipPath id="__lottie_element_26"><rect width="430" height="430" x="0" y="0"/></clipPath><clipPath id="__lottie_element_28"><path d="M0,0 L430,0 L430,430 L0,430z"/></clipPath><filter id="__lottie_element_34" x="-100%" y="-100%" width="300%" height="300%"><feGaussianBlur result="filter_result_0" stdDeviation="52.5 52.5" edgeMode="wrap"/></filter><g id="__lottie_element_35"><g clip-path="url(#__lottie_element_36)" transform="matrix(1,0,0,1,0,0)" opacity="1" style="display: block;"><g transform="matrix(1,0,0,1,238.94500732421875,273.1969909667969)" opacity="1" style="display: block;"><g opacity="1" transform="matrix(1,0,0,1,0,0)"><path stroke-linecap="round" stroke-linejoin="round" fill-opacity="0" class="secondary" stroke="rgb(8,168,138)" stroke-opacity="1" stroke-width="12" d=" M58.05099868774414,73.53099822998047 C58.05099868774414,73.53099822998047 57.2869987487793,-26.507999420166016 57.2869987487793,-26.507999420166016 C57.2869987487793,-26.507999420166016 13.029000282287598,-26.507999420166016 13.029000282287598,-26.507999420166016 C13.029000282287598,-26.507999420166016 -58.05099868774414,-73.53099822998047 -58.05099868774414,-73.53099822998047"/></g></g><g transform="matrix(1,0,0,1,149.79901123046875,266.385009765625)" opacity="1" style="display: block;"><g opacity="1" transform="matrix(1,0,0,1,0,0)"><path stroke-linecap="round" stroke-linejoin="round" fill-opacity="0" class="primary" stroke="rgb(18,19,49)" stroke-opacity="1" stroke-width="12" d=" M66.75199890136719,23.517000198364258 C66.75199890136719,23.517000198364258 -4.328000068664551,-23.517000198364258 -4.328000068664551,-23.517000198364258 C-4.328000068664551,-23.517000198364258 -64.75800323486328,-23.517000198364258 -64.75800323486328,-23.517000198364258"/></g></g><g transform="matrix(1,0,0,1,127.3219985961914,133.802001953125)" opacity="1" style="display: block;"><g opacity="1" transform="matrix(1,0,0,1,0,0)"><path stroke-linecap="round" stroke-linejoin="round" fill-opacity="0" class="primary" stroke="rgb(18,19,49)" stroke-opacity="1" stroke-width="12" d=" M-42.03799819946289,0 C-42.03799819946289,0 42.03799819946289,0 42.03799819946289,0"/></g></g><g transform="matrix(1,0,0,1,270.35400390625,160.9669952392578)" opacity="1" style="display: block;"><g opacity="1" transform="matrix(1,0,0,1,0,0)"><path stroke-linecap="round" stroke-linejoin="round" fill-opacity="0" class="primary" stroke="rgb(18,19,49)" stroke-opacity="1" stroke-width="12" d=" M73.6520004272461,27.033000946044922 C73.6520004272461,27.033000946044922 0,27.165000915527344 0,27.165000915527344 C0,27.165000915527344 0,-27.165000915527344 0,-27.165000915527344"/></g></g><g transform="matrix(1,0,0,1,270.32000732421875,133.802001953125)" opacity="1" style="display: block;"><g opacity="1" transform="matrix(1,0,0,1,0,0)"><path stroke-linecap="round" stroke-linejoin="round" fill-opacity="0" class="primary" stroke="rgb(18,19,49)" stroke-opacity="1" stroke-width="20" d=" M0.23600000143051147,0 C0.23600000143051147,0 -0.23600000143051147,0 -0.23600000143051147,0"/></g></g><g transform="matrix(1,0,0,1,180.8939971923828,199.66600036621094)" opacity="1" style="display: block;"><g opacity="1" transform="matrix(1,0,0,1,0,0)"><path stroke-linecap="round" stroke-linejoin="round" fill-opacity="0" class="secondary" stroke="rgb(8,168,138)" stroke-opacity="1" stroke-width="20" d=" M0.27000001072883606,0 C0.27000001072883606,0 -0.27000001072883606,0 -0.27000001072883606,0"/></g></g><g transform="matrix(1,0,0,1,216.552001953125,289.9020080566406)" opacity="1" style="display: block;"><g opacity="1" transform="matrix(1,0,0,1,0,0)"><path stroke-linecap="round" stroke-linejoin="round" fill-opacity="0" class="primary" stroke="rgb(18,19,49)" stroke-opacity="1" stroke-width="20" d=" M0.23600000143051147,0 C0.23600000143051147,0 -0.23600000143051147,0 -0.23600000143051147,0"/></g></g><g transform="matrix(1,0,0,1,169.6009979248047,133.802001953125)" opacity="1" style="display: block;"><g opacity="1" transform="matrix(1,0,0,1,0,0)"><path stroke-linecap="round" stroke-linejoin="round" fill-opacity="0" class="primary" stroke="rgb(18,19,49)" stroke-opacity="1" stroke-width="20" d=" M0.24199999868869781,0 C0.24199999868869781,0 -0.24199999868869781,0 -0.24199999868869781,0"/></g></g><g transform="matrix(1,0,0,1,0,0)" opacity="1" style="display: block;"><g opacity="1" transform="matrix(1,0,0,1,215,372.5)"><g opacity="1" transform="matrix(1,0,0,1,0,0)"><path stroke-linecap="round" stroke-linejoin="round" fill-opacity="0" class="secondary" stroke="rgb(8,168,138)" stroke-opacity="1" stroke-width="12" d=" M80.75,22.5 C80.75,22.5 80.75,-22.5 80.75,-22.5 M26.75,22.5 C26.75,22.5 26.75,-22.5 26.75,-22.5 M-82,22.5 C-82,22.5 -82,-22.5 -82,-22.5 M-27.75,22.5 C-27.75,22.5 -27.75,-22.5 -27.75,-22.5"/></g></g><g opacity="1" transform="matrix(1,0,0,1,372.5,215)"><g opacity="1" transform="matrix(1,0,0,1,0,0)"><path stroke-linecap="round" stroke-linejoin="round" fill-opacity="0" class="secondary" stroke="rgb(8,168,138)" stroke-opacity="1" stroke-width="12" d=" M22.5,-81.5 C22.5,-81.5 -22.5,-81.5 -22.5,-81.5 M22.5,-27.5 C22.5,-27.5 -22.5,-27.5 -22.5,-27.5 M22.5,81.75 C22.5,81.75 -22.5,81.75 -22.5,81.75 M22.5,27 C22.5,27 -22.5,27 -22.5,27"/></g></g><g opacity="1" transform="matrix(1,0,0,1,57.5,215)"><g opacity="1" transform="matrix(1,0,0,1,0,0)"><path stroke-linecap="round" stroke-linejoin="round" fill-opacity="0" class="secondary" stroke="rgb(8,168,138)" stroke-opacity="1" stroke-width="12" d=" M-22.5,-81.5 C-22.5,-81.5 22.5,-81.5 22.5,-81.5 M-22.5,-27.5 C-22.5,-27.5 22.5,-27.5 22.5,-27.5 M-22.5,81.75 C-22.5,81.75 22.5,81.75 22.5,81.75 M-22.5,27.25 C-22.5,27.25 22.5,27.25 22.5,27.25"/></g></g><g opacity="1" transform="matrix(1,0,0,1,215,57.5)"><g opacity="1" transform="matrix(1,0,0,1,0,0)"><path stroke-linecap="round" stroke-linejoin="round" fill-opacity="0" class="secondary" stroke="rgb(8,168,138)" stroke-opacity="1" stroke-width="12" d=" M80.75,-22.5 C80.75,-22.5 80.75,22.5 80.75,22.5 M26.75,-22.5 C26.75,-22.5 26.75,22.5 26.75,22.5 M-82,-22.5 C-82,-22.5 -82,22.5 -82,22.5 M-27.75,-22.5 C-27.75,-22.5 -27.75,22.5 -27.75,22.5"/></g></g></g><g transform="matrix(1,0,0,1,215,215)" opacity="1" style="display: block;"><g opacity="1" transform="matrix(1,0,0,1,0,0)"><path stroke-linecap="round" stroke-linejoin="round" fill-opacity="0" class="primary" stroke="rgb(18,19,49)" stroke-opacity="1" stroke-width="12" d=" M105.40699768066406,-131.54299926757812 C105.40699768066406,-131.54299926757812 -105.40699768066406,-131.54299926757812 -105.40699768066406,-131.54299926757812 C-119.84200286865234,-131.54299926757812 -131.54299926757812,-119.84200286865234 -131.54299926757812,-105.40699768066406 C-131.54299926757812,-105.40699768066406 -131.54299926757812,105.40699768066406 -131.54299926757812,105.40699768066406 C-131.54299926757812,119.84200286865234 -119.84200286865234,131.54299926757812 -105.40699768066406,131.54299926757812 C-105.40699768066406,131.54299926757812 105.40699768066406,131.54299926757812 105.40699768066406,131.54299926757812 C119.84200286865234,131.54299926757812 131.54299926757812,119.84200286865234 131.54299926757812,105.40699768066406 C131.54299926757812,105.40699768066406 131.54299926757812,-105.40699768066406 131.54299926757812,-105.40699768066406 C131.54299926757812,-119.84200286865234 119.84200286865234,-131.54299926757812 105.40699768066406,-131.54299926757812z"/></g></g></g></g><clipPath id="__lottie_element_36"><path d="M0,0 L430,0 L430,430 L0,430z"/></clipPath><mask id="__lottie_element_35_1" mask-type="alpha"><use xmlns:ns1="http://www.w3.org/1999/xlink" ns1:href="#__lottie_element_35"/></mask></defs><g clip-path="url(#__lottie_element_26)"><g clip-path="url(#__lottie_element_28)" transform="matrix(1,0,0,1,0,0)" opacity="1" style="display: block;"><g mask="url(#__lottie_element_35_1)" style="display: block;"><g filter="url(#__lottie_element_34)" transform="matrix(-0.1674155443906784,-2.3941538333892822,2.3941538333892822,-0.1674155443906784,271.9410095214844,219.4600067138672)" opacity="1"><g class="design" opacity="1" transform="matrix(1,0,0,1,0,0)"><path class="primary" fill="rgb(75,225,236)" fill-opacity="1" d=" M0,-250 C137.97500610351562,-250 250,-137.97500610351562 250,0 C250,137.97500610351562 137.97500610351562,250 0,250 C-137.97500610351562,250 -250,137.97500610351562 -250,0 C-250,-137.97500610351562 -137.97500610351562,-250 0,-250z"/></g><g class="design" opacity="1" transform="matrix(1,0,0,1,113.24199676513672,-118.88400268554688)"><path class="secondary" fill="rgb(0,0,0)" fill-opacity="1" d=" M0,-176.5 C97.47799682617188,-176.5 176.5,-97.47799682617188 176.5,0 C176.5,97.47799682617188 97.47799682617188,176.5 0,176.5 C-43.948001861572266,176.5 -74.39600372314453,142.4429931640625 -105.29000091552734,115.86900329589844 C-142.92100524902344,83.5 -176.5,53.53099822998047 -176.5,0 C-176.5,-97.47799682617188 -97.47799682617188,-176.5 0,-176.5z"/></g></g></g></g></g></svg>