<svg xmlns="http://www.w3.org/2000/svg" xmlns:xlink="http://www.w3.org/1999/xlink" viewBox="0 0 430 430" width="430" height="430" preserveAspectRatio="xMidYMid meet" style="width: 100%; height: 100%; transform: translate3d(0px, 0px, 0px); content-visibility: visible;"><defs><clipPath id="__lottie_element_2"><rect width="430" height="430" x="0" y="0"/></clipPath><clipPath id="__lottie_element_4"><path d="M0,0 L430,0 L430,430 L0,430z"/></clipPath><filter id="__lottie_element_10" x="-100%" y="-100%" width="300%" height="300%"><feGaussianBlur result="filter_result_0" stdDeviation="52.5 52.5" edgeMode="wrap"/></filter><g id="__lottie_element_11"><g clip-path="url(#__lottie_element_12)" transform="matrix(1,0,0,1,0,0)" opacity="1" style="display: block;"><g clip-path="url(#__lottie_element_16)" transform="matrix(0.8999999761581421,0,0,0.8999999761581421,21.5,21.5)" opacity="1" style="display: block;"><g transform="matrix(3.690000057220459,0,0,3.690000057220459,-252.48793029785156,214.997314453125)" opacity="1" style="display: block;"><g opacity="1" transform="matrix(1,0,0,1,0,0)"><path stroke-linecap="round" stroke-linejoin="round" fill-opacity="0" class="secondary" stroke="rgb(8,168,138)" stroke-opacity="1" stroke-width="3.5" d=" M126.66699981689453,50 C109.63800048828125,50 95.83300018310547,27.61400032043457 95.83300018310547,0 C95.83300018310547,-27.61400032043457 109.63800048828125,-50 126.66699981689453,-50"/></g></g><g transform="matrix(3.690000057220459,0,0,3.690000057220459,-252.48793029785156,214.997314453125)" opacity="1" style="display: block;"><g opacity="1" transform="matrix(1,0,0,1,0,0)"><path stroke-linecap="round" stroke-linejoin="round" fill-opacity="0" class="secondary" stroke="rgb(8,168,138)" stroke-opacity="1" stroke-width="3.5" d=" M126.66699981689453,50 C126.75,41.25 126.83300018310547,27.61400032043457 126.83300018310547,0 C126.83300018310547,-27.61400032043457 126.75,-34.25 126.66699981689453,-50"/></g></g><g transform="matrix(3.690000057220459,0,0,3.690000057220459,-252.48793029785156,214.997314453125)" opacity="1" style="display: block;"><g opacity="1" transform="matrix(1,0,0,1,0,0)"><path stroke-linecap="round" stroke-linejoin="round" fill-opacity="0" class="secondary" stroke="rgb(8,168,138)" stroke-opacity="1" stroke-width="3.5" d=" M126.66699981689453,50 C144.2480010986328,50 158.5,27.61400032043457 158.5,0 C158.5,-27.61400032043457 144.2480010986328,-50 126.66699981689453,-50"/></g></g><g transform="matrix(3.690000057220459,0,0,3.690000057220459,-252.48793029785156,214.997314453125)" opacity="1" style="display: none;"><g opacity="1" transform="matrix(1,0,0,1,0,0)"><path stroke-linecap="round" stroke-linejoin="round" fill-opacity="0" class="secondary" stroke="rgb(8,168,138)" stroke-opacity="1" stroke-width="3.5" d=" M126.66699981689453,50 C146.8799285888672,50 176.96446228027344,34.48677062988281 176.96446228027344,0 C176.96446228027344,-34.985809326171875 143.9535675048828,-50 126.66699981689453,-50"/></g></g><g transform="matrix(3.690000057220459,0,0,3.690000057220459,-252.48793029785156,214.997314453125)" opacity="1" style="display: none;"><g opacity="1" transform="matrix(1,0,0,1,0,0)"><path stroke-linecap="round" stroke-linejoin="round" fill-opacity="0" class="secondary" stroke="rgb(8,168,138)" stroke-opacity="1" stroke-width="3.5" d=" M126.66699981689453,50 C146.53118896484375,50 175.84877014160156,34.34434509277344 175.84877014160156,0 C175.84877014160156,-34.83304214477539 143.70848083496094,-50 126.66699981689453,-50"/></g></g><g transform="matrix(3.690000057220459,0,0,3.690000057220459,-252.48793029785156,214.997314453125)" opacity="1" style="display: none;"><g opacity="1" transform="matrix(1,0,0,1,0,0)"><path stroke-linecap="round" stroke-linejoin="round" fill-opacity="0" class="secondary" stroke="rgb(8,168,138)" stroke-opacity="1" stroke-width="3.5" d=" M126.66699981689453,50 C146.53579711914062,50 175.88368225097656,34.357887268066406 175.88368225097656,0 C175.88368225097656,-34.84756851196289 143.7073974609375,-50 126.66699981689453,-50"/></g></g><g transform="matrix(3.690000057220459,0,0,3.690000057220459,-252.48793029785156,214.997314453125)" opacity="1" style="display: none;"><g opacity="1" transform="matrix(1,0,0,1,0,0)"><path stroke-linecap="round" stroke-linejoin="round" fill-opacity="0" class="secondary" stroke="rgb(8,168,138)" stroke-opacity="1" stroke-width="3.5" d=" M126.66699981689453,50 C146.5539093017578,50 176.02137756347656,34.41130828857422 176.02137756347656,0 C176.02137756347656,-34.90486526489258 143.70310974121094,-50 126.66699981689453,-50"/></g></g><g transform="matrix(3.690000057220459,0,0,3.690000057220459,-252.48793029785156,214.997314453125)" opacity="1" style="display: none;"><g opacity="1" transform="matrix(1,0,0,1,0,0)"><path stroke-linecap="round" stroke-linejoin="round" fill-opacity="0" class="secondary" stroke="rgb(8,168,138)" stroke-opacity="1" stroke-width="3.5" d=" M126.66699981689453,50 C146.4381866455078,50 175.14207458496094,34.070186614990234 175.14207458496094,0 C175.14207458496094,-34.538978576660156 143.73045349121094,-50 126.66699981689453,-50"/></g></g><g transform="matrix(3.690000057220459,0,0,3.690000057220459,-252.48793029785156,214.997314453125)" opacity="1" style="display: none;"><g opacity="1" transform="matrix(1,0,0,1,0,0)"><path stroke-linecap="round" stroke-linejoin="round" fill-opacity="0" class="secondary" stroke="rgb(8,168,138)" stroke-opacity="1" stroke-width="3.5" d=" M126.66699981689453,50 C146.57473754882812,50 176.1796417236328,34.47270584106445 176.1796417236328,0 C176.1796417236328,-34.970726013183594 143.69818115234375,-50 126.66699981689453,-50"/></g></g><g transform="matrix(3.690000057220459,0,0,3.690000057220459,-252.48793029785156,214.997314453125)" opacity="1" style="display: none;"><g opacity="1" transform="matrix(1,0,0,1,0,0)"><path stroke-linecap="round" stroke-linejoin="round" fill-opacity="0" class="secondary" stroke="rgb(8,168,138)" stroke-opacity="1" stroke-width="3.5" d=" M126.66699981689453,50 C146.4948272705078,50 175.5724334716797,34.237144470214844 175.5724334716797,0 C175.5724334716797,-34.71805953979492 143.71707153320312,-50 126.66699981689453,-50"/></g></g><g transform="matrix(3.690000057220459,0,0,3.690000057220459,-252.48793029785156,214.997314453125)" opacity="1" style="display: block;"><g opacity="1" transform="matrix(1,0,0,1,0,0)"><path stroke-linecap="round" stroke-linejoin="round" fill-opacity="0" class="secondary" stroke="rgb(8,168,138)" stroke-opacity="1" stroke-width="3.5" d=" M76.66699981689453,0 C76.66699981689453,0 176.66700744628906,0 176.66700744628906,0"/></g></g><g transform="matrix(3.690000057220459,0,0,3.690000057220459,-252.48423767089844,214.997314453125)" opacity="1" style="display: block;"><g opacity="1" transform="matrix(1,0,0,1,0,0)"><path stroke-linecap="round" stroke-linejoin="round" fill-opacity="0" class="secondary" stroke="rgb(8,168,138)" stroke-opacity="1" stroke-width="3.5" d=" M158.9929962158203,-38.13800048828125 C150.2830047607422,-33.577999114990234 139.0030059814453,-30.827999114990234 126.6729965209961,-30.827999114990234 C114.34300231933594,-30.827999114990234 103.06300354003906,-33.577999114990234 94.34300231933594,-38.13800048828125"/></g></g><g transform="matrix(3.690000057220459,0,0,3.690000057220459,-252.48423767089844,214.997314453125)" opacity="1" style="display: block;"><g opacity="1" transform="matrix(1,0,0,1,0,0)"><path stroke-linecap="round" stroke-linejoin="round" fill-opacity="0" class="secondary" stroke="rgb(8,168,138)" stroke-opacity="1" stroke-width="3.5" d=" M94.34300231933594,38.13999938964844 C103.0530014038086,33.58000183105469 114.33300018310547,30.829999923706055 126.66300201416016,30.829999923706055 C138.9929962158203,30.829999923706055 150.2729949951172,33.58000183105469 158.9929962158203,38.13999938964844"/></g></g></g><g transform="matrix(3.321000099182129,0,0,3.321000099182129,-205.7361297607422,215)" opacity="1" style="display: block;"><g opacity="1" transform="matrix(1,0,0,1,0,0)"><path stroke-linecap="round" stroke-linejoin="round" fill-opacity="0" class="primary" stroke="rgb(18,19,49)" stroke-opacity="1" stroke-width="3.5" d=" M176.66700744628906,0 C176.66700744628906,27.61400032043457 154.281005859375,50 126.66699981689453,50 C99.0530014038086,50 76.66699981689453,27.61400032043457 76.66699981689453,0 C76.66699981689453,-27.61400032043457 99.0530014038086,-50 126.66699981689453,-50 C154.281005859375,-50 176.66700744628906,-27.61400032043457 176.66700744628906,0z"/></g></g></g></g><clipPath id="__lottie_element_12"><path d="M0,0 L430,0 L430,430 L0,430z"/></clipPath><mask id="__lottie_element_11_1" mask-type="alpha"><use xmlns:ns1="http://www.w3.org/1999/xlink" ns1:href="#__lottie_element_11"/></mask><clipPath id="__lottie_element_16"><path d="M0,0 L430,0 L430,430 L0,430z"/></clipPath></defs><g clip-path="url(#__lottie_element_2)"><g clip-path="url(#__lottie_element_4)" transform="matrix(1,0,0,1,0,0)" opacity="1" style="display: block;"><g mask="url(#__lottie_element_11_1)" style="display: block;"><g filter="url(#__lottie_element_10)" transform="matrix(-0.1674155443906784,-2.3941538333892822,2.3941538333892822,-0.1674155443906784,271.9410095214844,220.4600067138672)" opacity="1"><g class="design" opacity="1" transform="matrix(1,0,0,1,0,0)"><path class="primary" fill="rgb(75,225,236)" fill-opacity="1" d=" M0,-250 C137.97500610351562,-250 250,-137.97500610351562 250,0 C250,137.97500610351562 137.97500610351562,250 0,250 C-137.97500610351562,250 -250,137.97500610351562 -250,0 C-250,-137.97500610351562 -137.97500610351562,-250 0,-250z"/></g><g class="design" opacity="1" transform="matrix(1,0,0,1,113.24199676513672,-118.88400268554688)"><path class="secondary" fill="rgb(0,0,0)" fill-opacity="1" d=" M0,-176.5 C97.47799682617188,-176.5 176.5,-97.47799682617188 176.5,0 C176.5,97.47799682617188 97.47799682617188,176.5 0,176.5 C-43.948001861572266,176.5 -74.39600372314453,142.4429931640625 -105.29000091552734,115.86900329589844 C-142.92100524902344,83.5 -176.5,53.53099822998047 -176.5,0 C-176.5,-97.47799682617188 -97.47799682617188,-176.5 0,-176.5z"/></g></g></g></g></g></svg>