<svg xmlns="http://www.w3.org/2000/svg" xmlns:xlink="http://www.w3.org/1999/xlink" viewBox="0 0 430 430" width="430" height="430" preserveAspectRatio="xMidYMid meet" style="width: 100%; height: 100%; transform: translate3d(0px, 0px, 0px); content-visibility: visible;"><defs><clipPath id="__lottie_element_26"><rect width="430" height="430" x="0" y="0"/></clipPath><clipPath id="__lottie_element_28"><path d="M0,0 L430,0 L430,430 L0,430z"/></clipPath><filter id="__lottie_element_34" x="-100%" y="-100%" width="300%" height="300%"><feGaussianBlur result="filter_result_0" stdDeviation="52.5 52.5" edgeMode="wrap"/></filter><g id="__lottie_element_35"><g clip-path="url(#__lottie_element_36)" transform="matrix(1,0,0,1,0,0)" opacity="1" style="display: block;"><g mask="url(#__lottie_element_42_1)" style="display: block;"><g filter="url(#__lottie_element_41)" transform="matrix(0.7316831350326538,-2.2857472896575928,2.2857472896575928,0.7316831350326538,271.9410095214844,219.4600067138672)" opacity="1"><g class="design" opacity="1" transform="matrix(1,0,0,1,0,0)"><path class="primary" fill="rgb(75,225,236)" fill-opacity="1" d=" M0,-250 C137.97500610351562,-250 250,-137.97500610351562 250,0 C250,137.97500610351562 137.97500610351562,250 0,250 C-137.97500610351562,250 -250,137.97500610351562 -250,0 C-250,-137.97500610351562 -137.97500610351562,-250 0,-250z"/></g><g class="design" opacity="1" transform="matrix(1,0,0,1,113.24199676513672,-118.88400268554688)"><path class="secondary" fill="rgb(0,0,0)" fill-opacity="1" d=" M0,-176.5 C97.47799682617188,-176.5 176.5,-97.47799682617188 176.5,0 C176.5,97.47799682617188 97.47799682617188,176.5 0,176.5 C-43.948001861572266,176.5 -74.39600372314453,142.4429931640625 -105.29000091552734,115.86900329589844 C-142.92100524902344,83.5 -176.5,53.53099822998047 -176.5,0 C-176.5,-97.47799682617188 -97.47799682617188,-176.5 0,-176.5z"/></g></g></g></g></g><clipPath id="__lottie_element_36"><path d="M0,0 L430,0 L430,430 L0,430z"/></clipPath><mask id="__lottie_element_35_1" mask-type="alpha"><use xmlns:ns1="http://www.w3.org/1999/xlink" ns1:href="#__lottie_element_35"/></mask><filter id="__lottie_element_41" x="-100%" y="-100%" width="300%" height="300%"><feGaussianBlur result="filter_result_0" stdDeviation="52.5 52.5" edgeMode="wrap"/></filter><g id="__lottie_element_42"><g clip-path="url(#__lottie_element_43)" transform="matrix(1,0,0,1,0,0)" opacity="1" style="display: block;"><g mask="url(#__lottie_element_49_1)" style="display: block;"><g transform="matrix(1,0,0,1,162,247)" opacity="0.8"><g opacity="1" transform="matrix(1,0,0,1,0,0)"><path class="primary" fill="rgb(18,19,49)" fill-opacity="1" d=" M-397.5,-232.5 C-397.5,-232.5 -70,91 -70,91"/><path stroke-linecap="butt" stroke-linejoin="miter" fill-opacity="0" stroke-miterlimit="4" class="secondary" stroke="rgb(8,168,138)" stroke-opacity="1" stroke-width="12.6" d=" M-397.5,-232.5 C-397.5,-232.5 -70,91 -70,91"/></g></g></g><g transform="matrix(0.9983900785446167,-0.05672086775302887,0.05672086775302887,0.9983900785446167,207.48448181152344,201.19931030273438)" opacity="1" style="display: block;"><g opacity="1" transform="matrix(1,0,0,1,0,0)"><path stroke-linecap="round" stroke-linejoin="round" fill-opacity="0" class="secondary" stroke="rgb(8,168,138)" stroke-opacity="1" stroke-width="8" d=" M-61.12893295288086,-1.821900486946106 C-61.12893295288086,-1.821900486946106 -61.12893295288086,7.815971851348877 -61.12893295288086,7.815971851348877 C-61.12893295288086,11.36423110961914 -55.6534423828125,14.241008758544922 -48.89921569824219,14.241008758544922 C-48.89921569824219,14.241008758544922 48.93788146972656,14.241008758544922 48.93788146972656,14.241008758544922 C55.692474365234375,14.241008758544922 61.167598724365234,11.36423110961914 61.167598724365234,7.815971851348877 C61.167598724365234,7.815971851348877 61.167598724365234,-1.821900486946106 61.167598724365234,-1.821900486946106"/><path fill="rgb(255,0,0)" fill-opacity="1" d=" M-61.12893295288086,-1.821900486946106 C-61.12893295288086,-1.821900486946106 -61.12893295288086,7.815971851348877 -61.12893295288086,7.815971851348877 C-61.12893295288086,11.36423110961914 -55.6534423828125,14.241008758544922 -48.89921569824219,14.241008758544922 C-48.89921569824219,14.241008758544922 48.93788146972656,14.241008758544922 48.93788146972656,14.241008758544922 C55.692474365234375,14.241008758544922 61.167598724365234,11.36423110961914 61.167598724365234,7.815971851348877 C61.167598724365234,7.815971851348877 61.167598724365234,-1.821900486946106 61.167598724365234,-1.821900486946106"/></g><g opacity="1" transform="matrix(1,0,0,1,0,0)"><path stroke-linecap="round" stroke-linejoin="round" fill-opacity="0" class="primary" stroke="rgb(18,19,49)" stroke-opacity="1" stroke-width="12" d=" M-160,105 C-160,105 -193.39476013183594,19.124711990356445 -193.39476013183594,19.124711990356445 C-197.8235626220703,7.596249103546143 -192.29580688476562,-1.821900486946106 -178.78762817382812,-1.821900486946106 C-178.78762817382812,-1.821900486946106 178.10328674316406,-1.821900486946106 178.10328674316406,-1.821900486946106 C191.61146545410156,-1.821900486946106 196.95831298828125,9.215303421020508 193.4334259033203,19.124711990356445 C193.4334259033203,19.124711990356445 160,105 160,105"/></g></g><g transform="matrix(0.9983900785446167,-0.05672086775302887,0.05672086775302887,0.9983900785446167,215,333.4859924316406)" opacity="1" style="display: block;"><g opacity="1" transform="matrix(1,0,0,1,0,0)"><path stroke-linecap="round" stroke-linejoin="round" fill-opacity="0" class="primary" stroke="rgb(18,19,49)" stroke-opacity="1" stroke-width="12" d=" M-185,-27.5 C-185,-27.5 -55,-27.5 -55,-27.5 C-55,-27.5 -55,-17.5 -55,-17.5 C-55,-11.97700023651123 -50.52299880981445,-7.5 -45,-7.5 C-45,-7.5 45,-7.5 45,-7.5 C50.52299880981445,-7.5 55,-11.97700023651123 55,-17.5 C55,-17.5 55,-27.5 55,-27.5 C55,-27.5 185,-27.5 185,-27.5 C185,-27.5 185,-2.5 185,-2.5 C185,14.069000244140625 171.56900024414062,27.5 155,27.5 C155,27.5 -155,27.5 -155,27.5 C-171.56900024414062,27.5 -185,14.069000244140625 -185,-2.5 C-185,-2.5 -185,-27.5 -185,-27.5z"/></g></g></g></g><clipPath id="__lottie_element_43"><path d="M0,0 L430,0 L430,430 L0,430z"/></clipPath><mask id="__lottie_element_42_1" mask-type="alpha"><use xmlns:ns2="http://www.w3.org/1999/xlink" ns2:href="#__lottie_element_42"/></mask><g id="__lottie_element_49"><g style="display: none;"><g><path/></g></g></g><mask id="__lottie_element_49_1" mask-type="alpha"><use xmlns:ns3="http://www.w3.org/1999/xlink" ns3:href="#__lottie_element_49"/></mask></defs><g clip-path="url(#__lottie_element_26)"><g clip-path="url(#__lottie_element_28)" transform="matrix(1,0,0,1,0,0)" opacity="1" style="display: block;"><g mask="url(#__lottie_element_35_1)" style="display: block;"><g filter="url(#__lottie_element_34)" transform="matrix(-0.040282171219587326,-2.3996620178222656,2.3996620178222656,-0.040282171219587326,271.9410095214844,219.4600067138672)" opacity="1"><g class="design" opacity="1" transform="matrix(1,0,0,1,0,0)"><path class="primary" fill="rgb(75,225,236)" fill-opacity="1" d=" M0,-250 C137.97500610351562,-250 250,-137.97500610351562 250,0 C250,137.97500610351562 137.97500610351562,250 0,250 C-137.97500610351562,250 -250,137.97500610351562 -250,0 C-250,-137.97500610351562 -137.97500610351562,-250 0,-250z"/></g><g class="design" opacity="1" transform="matrix(1,0,0,1,113.24199676513672,-118.88400268554688)"><path class="secondary" fill="rgb(0,0,0)" fill-opacity="1" d=" M0,-176.5 C97.47799682617188,-176.5 176.5,-97.47799682617188 176.5,0 C176.5,97.47799682617188 97.47799682617188,176.5 0,176.5 C-43.948001861572266,176.5 -74.39600372314453,142.4429931640625 -105.29000091552734,115.86900329589844 C-142.92100524902344,83.5 -176.5,53.53099822998047 -176.5,0 C-176.5,-97.47799682617188 -97.47799682617188,-176.5 0,-176.5z"/></g></g></g></g></g></svg>