<svg xmlns="http://www.w3.org/2000/svg" xmlns:xlink="http://www.w3.org/1999/xlink" viewBox="0 0 430 430" width="430" height="430" preserveAspectRatio="xMidYMid meet" style="width: 100%; height: 100%; transform: translate3d(0px, 0px, 0px); content-visibility: visible;"><defs><clipPath id="__lottie_element_26"><rect width="430" height="430" x="0" y="0"/></clipPath><clipPath id="__lottie_element_28"><path d="M0,0 L430,0 L430,430 L0,430z"/></clipPath><filter id="__lottie_element_34" x="-100%" y="-100%" width="300%" height="300%"><feGaussianBlur result="filter_result_0" stdDeviation="52.5 52.5" edgeMode="wrap"/></filter><g id="__lottie_element_35"><g clip-path="url(#__lottie_element_36)" transform="matrix(1,0,0,1,0,0)" opacity="1" style="display: block;"><g transform="matrix(0.40942004323005676,0.9123460054397583,-0.9123460054397583,0.40942004323005676,352.7608337402344,-107.98481750488281)" opacity="1" style="display: block;"><g opacity="1" transform="matrix(1,0,0,1,250.2550048828125,118.99299621582031)"><path stroke-linecap="round" stroke-linejoin="round" fill-opacity="0" class="primary" stroke="rgb(18,19,49)" stroke-opacity="1" stroke-width="12" d=" M0,29.113000869750977 C0,29.113000869750977 0,78.30799865722656 0,78.30799865722656 M-29.113000869750977,0 C-29.113000869750977,-16.077999114990234 -16.077999114990234,-29.113000869750977 0,-29.113000869750977 C16.077999114990234,-29.113000869750977 29.113000869750977,-16.077999114990234 29.113000869750977,0 C29.113000869750977,16.077999114990234 16.077999114990234,29.113000869750977 0,29.113000869750977 C-16.077999114990234,29.113000869750977 -29.113000869750977,16.077999114990234 -29.113000869750977,0z"/></g></g><g transform="matrix(-0.15054872632026672,0.9886025786399841,-0.9886025786399841,-0.15054872632026672,512.9528198242188,20.214584350585938)" opacity="1" style="display: block;"><g opacity="1" transform="matrix(1,0,0,1,250.2550048828125,118.99299621582031)"><path stroke-linecap="round" stroke-linejoin="round" fill-opacity="0" class="primary" stroke="rgb(18,19,49)" stroke-opacity="1" stroke-width="12" d=" M-0.0024945985060185194,45.81968307495117 C-0.0024945985060185194,45.81968307495117 0,78.30799865722656 0,78.30799865722656 M-19.450706481933594,26.371469497680664 C-19.450706481933594,15.630841255187988 -10.743123054504395,6.9232563972473145 -0.0024945985060185194,6.9232563972473145 C10.738133430480957,6.9232563972473145 19.446075439453125,15.630841255187988 19.446075439453125,26.371469497680664 C19.446075439453125,37.112098693847656 10.738133430480957,45.81968307495117 -0.0024945985060185194,45.81968307495117 C-10.743123054504395,45.81968307495117 -19.450706481933594,37.112098693847656 -19.450706481933594,26.371469497680664z"/></g></g><g transform="matrix(0.9641728401184082,-0.26527488231658936,0.26527488231658936,0.9641728401184082,-95.80667114257812,40.80964660644531)" opacity="1" style="display: block;"><g opacity="1" transform="matrix(1,0,0,1,250.2550048828125,118.99299621582031)"><path stroke-linecap="round" stroke-linejoin="round" fill-opacity="0" class="primary" stroke="rgb(18,19,49)" stroke-opacity="1" stroke-width="12" d=" M-0.0067987143993377686,74.64495849609375 C-0.0067987143993377686,74.64495849609375 0,78.30799865722656 0,78.30799865722656 M-2.7796366214752197,71.87212371826172 C-2.7796366214752197,70.34046173095703 -1.5384637117385864,69.09928894042969 -0.0067987143993377686,69.09928894042969 C1.5248662233352661,69.09928894042969 2.767010450363159,70.34046173095703 2.767010450363159,71.87212371826172 C2.767010450363159,73.4037857055664 1.5248662233352661,74.64495849609375 -0.0067987143993377686,74.64495849609375 C-1.5384637117385864,74.64495849609375 -2.7796366214752197,73.4037857055664 -2.7796366214752197,71.87212371826172z"/></g></g><g transform="matrix(-0.9984219670295715,0.05615662783384323,-0.05615662783384323,-0.9984219670295715,479.8854064941406,476.57147216796875)" opacity="1" style="display: block;"><g opacity="1" transform="matrix(1,0,0,1,250.2550048828125,118.99299621582031)"><path stroke-linecap="round" stroke-linejoin="round" fill-opacity="0" class="primary" stroke="rgb(18,19,49)" stroke-opacity="1" stroke-width="12" d=" M0,29.113000869750977 C0,29.113000869750977 0,78.30799865722656 0,78.30799865722656 M-29.113000869750977,0 C-29.113000869750977,-16.077999114990234 -16.077999114990234,-29.113000869750977 0,-29.113000869750977 C16.077999114990234,-29.113000869750977 29.113000869750977,-16.077999114990234 29.113000869750977,0 C29.113000869750977,16.077999114990234 16.077999114990234,29.113000869750977 0,29.113000869750977 C-16.077999114990234,29.113000869750977 -29.113000869750977,16.077999114990234 -29.113000869750977,0z"/></g></g><g transform="matrix(-0.3796371519565582,-0.9251354932785034,0.9251354932785034,-0.3796371519565582,66.93199157714844,559.3919677734375)" opacity="1" style="display: block;"><g opacity="1" transform="matrix(1,0,0,1,250.2550048828125,118.99299621582031)"><path stroke-linecap="round" stroke-linejoin="round" fill-opacity="0" class="primary" stroke="rgb(18,19,49)" stroke-opacity="1" stroke-width="12" d=" M0,29.113000869750977 C0,29.113000869750977 0,78.30799865722656 0,78.30799865722656 M-29.113000869750977,0 C-29.113000869750977,-16.077999114990234 -16.077999114990234,-29.113000869750977 0,-29.113000869750977 C16.077999114990234,-29.113000869750977 29.113000869750977,-16.077999114990234 29.113000869750977,0 C29.113000869750977,16.077999114990234 16.077999114990234,29.113000869750977 0,29.113000869750977 C-16.077999114990234,29.113000869750977 -29.113000869750977,16.077999114990234 -29.113000869750977,0z"/></g></g><g transform="matrix(0.7676441073417664,-0.6408763527870178,0.6408763527870178,0.7676441073417664,-145.41506958007812,186.49676513671875)" opacity="1" style="display: block;"><g opacity="1" transform="matrix(1,0,0,1,250.2550048828125,118.99299621582031)"><path stroke-linecap="round" stroke-linejoin="round" fill-opacity="0" class="primary" stroke="rgb(18,19,49)" stroke-opacity="1" stroke-width="12" d=" M0,29.113000869750977 C0,29.113000869750977 0,78.30799865722656 0,78.30799865722656 M-29.113000869750977,0 C-29.113000869750977,-16.077999114990234 -16.077999114990234,-29.113000869750977 0,-29.113000869750977 C16.077999114990234,-29.113000869750977 29.113000869750977,-16.077999114990234 29.113000869750977,0 C29.113000869750977,16.077999114990234 16.077999114990234,29.113000869750977 0,29.113000869750977 C-16.077999114990234,29.113000869750977 -29.113000869750977,16.077999114990234 -29.113000869750977,0z"/></g></g><g transform="matrix(1,0,0,1,215.2550048828125,228.02000427246094)" opacity="1" style="display: block;"><g opacity="1" transform="matrix(1,0,0,1,0,0)"><path stroke-linecap="round" stroke-linejoin="round" fill-opacity="0" class="secondary" stroke="rgb(8,168,138)" stroke-opacity="1" stroke-width="12" d=" M65.71900177001953,0 C65.71900177001953,36.29499816894531 36.29499816894531,65.71900177001953 0,65.71900177001953 C-36.29499816894531,65.71900177001953 -65.71900177001953,36.29499816894531 -65.71900177001953,0 C-65.71900177001953,-36.29499816894531 -36.29499816894531,-65.71900177001953 0,-65.71900177001953 C36.29499816894531,-65.71900177001953 65.71900177001953,-36.29499816894531 65.71900177001953,0z"/></g></g></g></g><clipPath id="__lottie_element_36"><path d="M0,0 L430,0 L430,430 L0,430z"/></clipPath><mask id="__lottie_element_35_1" mask-type="alpha"><use xmlns:ns1="http://www.w3.org/1999/xlink" ns1:href="#__lottie_element_35"/></mask></defs><g clip-path="url(#__lottie_element_26)"><g clip-path="url(#__lottie_element_28)" transform="matrix(1,0,0,1,0,0)" opacity="1" style="display: block;"><g mask="url(#__lottie_element_35_1)" style="display: block;"><g filter="url(#__lottie_element_34)" transform="matrix(2.2788188457489014,0.7529840469360352,-0.7529840469360352,2.2788188457489014,271.9410095214844,220.4600067138672)" opacity="1"><g class="design" opacity="1" transform="matrix(1,0,0,1,0,0)"><path class="primary" fill="rgb(75,225,236)" fill-opacity="1" d=" M0,-250 C137.97500610351562,-250 250,-137.97500610351562 250,0 C250,137.97500610351562 137.97500610351562,250 0,250 C-137.97500610351562,250 -250,137.97500610351562 -250,0 C-250,-137.97500610351562 -137.97500610351562,-250 0,-250z"/></g><g class="design" opacity="1" transform="matrix(1,0,0,1,113.24199676513672,-118.88400268554688)"><path class="secondary" fill="rgb(0,0,0)" fill-opacity="1" d=" M0,-176.5 C97.47799682617188,-176.5 176.5,-97.47799682617188 176.5,0 C176.5,97.47799682617188 97.47799682617188,176.5 0,176.5 C-43.948001861572266,176.5 -74.39600372314453,142.4429931640625 -105.29000091552734,115.86900329589844 C-142.92100524902344,83.5 -176.5,53.53099822998047 -176.5,0 C-176.5,-97.47799682617188 -97.47799682617188,-176.5 0,-176.5z"/></g></g></g></g></g></svg>